HIERARCHY
ROOT hip
{
  OFFSET -0.140359 91.8931 -0.175966
  CHANNELS 6 Xposition Yposition Zposition Zrotation Xrotation Yrotation
  JOINT abdomen
  {
    OFFSET 0 7.2397 0
    CHANNELS 6 Xposition Yposition Zposition Zrotation Xrotation Yrotation
    JOINT chest
    {
      OFFSET 0 16.546 0
      CHANNELS 6 Xposition Yposition Zposition Zrotation Xrotation Yrotation
      JOINT neck
      {
        OFFSET 0 34.2149 0
        CHANNELS 6 Xposition Yposition Zposition Zrotation Xrotation Yrotation
        JOINT head
        {
          OFFSET 0 6.2923 0
          CHANNELS 6 Xposition Yposition Zposition Zrotation Xrotation Yrotation
          End Site
          {
            OFFSET 0 21.2161 0
          }
        }
      }
      JOINT lCollar
      {
        OFFSET 4.0639 26.6115 -1.1234
        CHANNELS 6 Xposition Yposition Zposition Zrotation Xrotation Yrotation
        JOINT lShldr
        {
          OFFSET 14.1772 0 0
          CHANNELS 6 Xposition Yposition Zposition Zrotation Xrotation Yrotation
          JOINT lForeArm
          {
            OFFSET 26.1234 0 0
            CHANNELS 6 Xposition Yposition Zposition Zrotation Xrotation Yrotation
            JOINT lHand
            {
              OFFSET 27.7188 0 0
              CHANNELS 6 Xposition Yposition Zposition Zrotation Xrotation Yrotation
              JOINT lThumb1
              {
                OFFSET 2.2979 -0.4685 1.8313
                CHANNELS 6 Xposition Yposition Zposition Zrotation Xrotation Yrotation
                JOINT lThumb2
                {
                  OFFSET 5.2953 0 0
                  CHANNELS 6 Xposition Yposition Zposition Zrotation Xrotation Yrotation
                  JOINT lThumb3
                  {
                    OFFSET 3.0181 0 0
                    CHANNELS 6 Xposition Yposition Zposition Zrotation Xrotation Yrotation
                    End Site
                    {
                      OFFSET 2.6294 0 0
                    }
                  }
                }
              }
              JOINT lIndex1
              {
                OFFSET 9.3793 0.2991 2.5924
                CHANNELS 6 Xposition Yposition Zposition Zrotation Xrotation Yrotation
                JOINT lIndex2
                {
                  OFFSET 4.3461 0 0
                  CHANNELS 6 Xposition Yposition Zposition Zrotation Xrotation Yrotation
                  JOINT lIndex3
                  {
                    OFFSET 2.1666 0 0
                    CHANNELS 6 Xposition Yposition Zposition Zrotation Xrotation Yrotation
                    End Site
                    {
                      OFFSET 2.2048 0 0
                    }
                  }
                }
              }
              JOINT lMid1
              {
                OFFSET 9.4769 0.8376 0.2947
                CHANNELS 6 Xposition Yposition Zposition Zrotation Xrotation Yrotation
                JOINT lMid2
                {
                  OFFSET 4.772 0 0
                  CHANNELS 6 Xposition Yposition Zposition Zrotation Xrotation Yrotation
                  JOINT lMid3
                  {
                    OFFSET 2.8722 0 0
                    CHANNELS 6 Xposition Yposition Zposition Zrotation Xrotation Yrotation
                    End Site
                    {
                      OFFSET 2.0959 0 0
                    }
                  }
                }
              }
              JOINT lRing1
              {
                OFFSET 8.6586 1.0176 -1.7016
                CHANNELS 6 Xposition Yposition Zposition Zrotation Xrotation Yrotation
                JOINT lRing2
                {
                  OFFSET 4.5461 0 0
                  CHANNELS 6 Xposition Yposition Zposition Zrotation Xrotation Yrotation
                  JOINT lRing3
                  {
                    OFFSET 2.506 0 0
                    CHANNELS 6 Xposition Yposition Zposition Zrotation Xrotation Yrotation
                    End Site
                    {
                      OFFSET 2.2023 0 0
                    }
                  }
                }
              }
              JOINT lPinky1
              {
                OFFSET 7.6901 0.6618 -3.9096
                CHANNELS 6 Xposition Yposition Zposition Zrotation Xrotation Yrotation
                JOINT lPinky2
                {
                  OFFSET 3.2119 0 0
                  CHANNELS 6 Xposition Yposition Zposition Zrotation Xrotation Yrotation
                  JOINT lPinky3
                  {
                    OFFSET 1.924 0 0
                    CHANNELS 6 Xposition Yposition Zposition Zrotation Xrotation Yrotation
                    End Site
                    {
                      OFFSET 1.7829 0 0
                    }
                  }
                }
              }
            }
          }
        }
      }
      JOINT rCollar
      {
        OFFSET -4.0677 26.6109 -1.1234
        CHANNELS 6 Xposition Yposition Zposition Zrotation Xrotation Yrotation
        JOINT rShldr
        {
          OFFSET -14.1772 0 0
          CHANNELS 6 Xposition Yposition Zposition Zrotation Xrotation Yrotation
          JOINT rForeArm
          {
            OFFSET -26.1234 0 0
            CHANNELS 6 Xposition Yposition Zposition Zrotation Xrotation Yrotation
            JOINT rHand
            {
              OFFSET -27.7188 0 0
              CHANNELS 6 Xposition Yposition Zposition Zrotation Xrotation Yrotation
              JOINT rThumb1
              {
                OFFSET -2.2979 -0.4684 1.8313
                CHANNELS 6 Xposition Yposition Zposition Zrotation Xrotation Yrotation
                JOINT rThumb2
                {
                  OFFSET -5.2953 0 0
                  CHANNELS 6 Xposition Yposition Zposition Zrotation Xrotation Yrotation
                  JOINT rThumb3
                  {
                    OFFSET -3.0181 0 0
                    CHANNELS 6 Xposition Yposition Zposition Zrotation Xrotation Yrotation
                    End Site
                    {
                      OFFSET -2.6294 0 0
                    }
                  }
                }
              }
              JOINT rIndex1
              {
                OFFSET -9.3793 0.2991 2.5924
                CHANNELS 6 Xposition Yposition Zposition Zrotation Xrotation Yrotation
                JOINT rIndex2
                {
                  OFFSET -4.3461 0 0
                  CHANNELS 6 Xposition Yposition Zposition Zrotation Xrotation Yrotation
                  JOINT rIndex3
                  {
                    OFFSET -2.1666 0 0
                    CHANNELS 6 Xposition Yposition Zposition Zrotation Xrotation Yrotation
                    End Site
                    {
                      OFFSET -2.2048 0 0
                    }
                  }
                }
              }
              JOINT rMid1
              {
                OFFSET -9.4769 0.8376 0.2947
                CHANNELS 6 Xposition Yposition Zposition Zrotation Xrotation Yrotation
                JOINT rMid2
                {
                  OFFSET -4.772 0 0
                  CHANNELS 6 Xposition Yposition Zposition Zrotation Xrotation Yrotation
                  JOINT rMid3
                  {
                    OFFSET -2.8722 0 0
                    CHANNELS 6 Xposition Yposition Zposition Zrotation Xrotation Yrotation
                    End Site
                    {
                      OFFSET -2.0959 0 0
                    }
                  }
                }
              }
              JOINT rRing1
              {
                OFFSET -8.6586 1.0176 -1.7016
                CHANNELS 6 Xposition Yposition Zposition Zrotation Xrotation Yrotation
                JOINT rRing2
                {
                  OFFSET -4.5461 0 0
                  CHANNELS 6 Xposition Yposition Zposition Zrotation Xrotation Yrotation
                  JOINT rRing3
                  {
                    OFFSET -2.506 0 0
                    CHANNELS 6 Xposition Yposition Zposition Zrotation Xrotation Yrotation
                    End Site
                    {
                      OFFSET -2.2023 0 0
                    }
                  }
                }
              }
              JOINT rPinky1
              {
                OFFSET -7.6901 0.6618 -3.9096
                CHANNELS 6 Xposition Yposition Zposition Zrotation Xrotation Yrotation
                JOINT rPinky2
                {
                  OFFSET -3.2119 0 0
                  CHANNELS 6 Xposition Yposition Zposition Zrotation Xrotation Yrotation
                  JOINT rPinky3
                  {
                    OFFSET -1.924 0 0
                    CHANNELS 6 Xposition Yposition Zposition Zrotation Xrotation Yrotation
                    End Site
                    {
                      OFFSET -1.7829 0 0
                    }
                  }
                }
              }
            }
          }
        }
      }
    }
  }
  JOINT lThigh
  {
    OFFSET 8.7379 -0.0029 0.0005
    CHANNELS 6 Xposition Yposition Zposition Zrotation Xrotation Yrotation
    JOINT lShin
    {
      OFFSET 0 -46.6676 0
      CHANNELS 6 Xposition Yposition Zposition Zrotation Xrotation Yrotation
      JOINT lFoot
      {
        OFFSET 0 -40.1476 0
        CHANNELS 6 Xposition Yposition Zposition Zrotation Xrotation Yrotation
        JOINT lToes
        {
          OFFSET 0 -8.8846 14.2294
          CHANNELS 6 Xposition Yposition Zposition Zrotation Xrotation Yrotation
          End Site
          {
            OFFSET 0 0 6.296
          }
        }
      }
    }
  }
  JOINT rThigh
  {
    OFFSET -8.7379 0.0029 -0.0005
    CHANNELS 6 Xposition Yposition Zposition Zrotation Xrotation Yrotation
    JOINT rShin
    {
      OFFSET 0 -46.6676 0
      CHANNELS 6 Xposition Yposition Zposition Zrotation Xrotation Yrotation
      JOINT rFoot
      {
        OFFSET 0 -40.1476 0
        CHANNELS 6 Xposition Yposition Zposition Zrotation Xrotation Yrotation
        JOINT rToes
        {
          OFFSET 0 -8.8846 14.2294
          CHANNELS 6 Xposition Yposition Zposition Zrotation Xrotation Yrotation
          End Site
          {
            OFFSET 0 0 6.296
          }
        }
      }
    }
  }
}
MOTION
Frames:	4
Frame Time:	0.0333333
-0.21463 91.496 -0.662191 -2.93574 6.36627 -53.9852 1.77636e-15 7.2397 0 1.23155 0.0785201 7.5048 0 16.546 -8.88178e-16 1.98579 2.19149 14.6753 -4.44089e-16 34.2149 0 -9.23552 42.1274 10.5873 1.77636e-15 6.2923 2.84217e-14 7.21533 -19.7785 23.0858 4.0639 26.6115 -1.1234 -5.53862 -1.52003 10.7426 14.1772 0 -1.77636e-15 -48.4067 -5.71175 -55.0771 26.1234 0 0 -0.853753 0.747795 -82.432 27.7188 -1.42109e-14 -1.42109e-14 40.7574 -36.0253 59.9915 2.2979 -0.4685 1.8313 32.94 60.5134 -45.4486 5.2953 0 7.10543e-15 3.95096 11.3734 9.93537 3.0181 -1.42109e-14 -1.42109e-14 37.2975 -0.458525 -5.86666 9.3793 0.2991 2.5924 -26.0979 -3.16132 2.61784 4.3461 0 2.84217e-14 -60.4203 -5.80098 10.4164 2.1666 -7.10543e-15 2.84217e-14 -25.6796 -1.14302 4.60813 9.4769 0.8376 0.2947 -36.1603 -7.10938 1.35292 4.772 0 0 -58.0092 -6.97912 12.7135 2.8722 3.55271e-15 0 -34.0679 -2.44167 9.72168 8.6586 1.0176 -1.7016 -44.9026 -1.50514 -2.43069 4.5461 0 0 -60.723 -4.04831 6.90513 2.506 0 0 -13.0833 -0.150098 2.71721 7.6901 0.6618 -3.9096 -35.2133 -10.9784 -9.0143 3.2119 0 0 -55.1774 -8.70999 16.5841 1.924 0 0 -25.5945 -1.90601 10.1678 -4.0677 26.6109 -1.1234 -10.4122 -19.7563 -3.93286 -14.1772 0 7.10543e-15 52.4609 36.1303 96.9601 -26.1234 1.42109e-14 1.42109e-14 0.430542 0.115371 30.0008 -27.7188 0 0 -38.4772 -42.3276 -37.5981 -2.2979 -0.4684 1.8313 -50.0644 74.385 88.2388 -5.2953 0 0 27.2356 20.4136 -21.4288 -3.0181 2.84217e-14 -7.10543e-15 33.1305 -4.53438 -35.9601 -9.3793 0.2991 2.5924 19.7814 -2.43564 -4.5438 -4.3461 -3.55271e-15 0 48.9272 -3.40175 -8.07322 -2.1666 7.10543e-15 0 52.4099 -4.06672 -7.87373 -9.4769 0.8376 0.2947 43.0582 -7.40551 -19.0728 -4.772 -3.55271e-15 0 108.256 -17.8599 -13.028 -2.8722 0 2.84217e-14 14.337 -0.317746 -4.67746 -8.6586 1.0176 -1.7016 51.5828 -2.05719 -9.80258 -4.5461 3.55271e-15 0 97.4434 -7.56428 -6.64243 -2.506 0 -2.84217e-14 42.3448 -1.69977 -5.29326 -7.6901 0.6618 -3.9096 52.1932 -13.5754 -6.19123 -3.2119 0 0 67.2431 -11.6274 -17.4114 -1.924 7.10543e-15 -2.84217e-14 44.4591 -5.33191 -14.5627 8.7379 -0.0029 0.0005 26.2244 -25.6982 29.457 0 -46.6676 0 3.80308 33.4269 8.69184 -1.77636e-15 -40.1476 0 -8.59798 -1.44219 13.7334 0 -8.8846 14.2294 0.0001 6.21202e-18 -0 -8.7379 0.0029 -0.0005 -9.58588 -12.7511 -23.7099 0 -46.6676 0 -5.45968 28.0718 10.0309 0 -40.1476 0 13.3379 -12.9435 -15.7779 0 -8.8846 14.2294 -6.46568e-35 9.31803e-18 3.97569e-16 
-0.229891 91.5495 -0.641079 -2.91752 6.34491 -53.9534 0 7.2397 0 1.23578 0.0600874 7.53134 0 16.546 0 1.99539 2.15607 14.7287 4.44089e-16 34.2149 0 -9.23237 42.1597 10.5874 -8.88178e-16 6.2923 1.42109e-14 7.19938 -19.7346 23.0787 4.0639 26.6115 -1.1234 -5.48661 -1.52781 10.7156 14.1772 0 3.55271e-15 -48.3907 -5.67541 -55.003 26.1234 -1.42109e-14 -1.42109e-14 -0.853514 0.746761 -82.3618 27.7188 0 -2.13163e-14 40.9113 -36.188 59.7795 2.2979 -0.4685 1.8313 32.94 60.5134 -45.4486 5.2953 -1.42109e-14 -7.10543e-15 3.95096 11.3734 9.93537 3.0181 1.42109e-14 7.10543e-15 37.2975 -0.458525 -5.86666 9.3793 0.2991 2.5924 -26.0979 -3.16132 2.61784 4.3461 1.42109e-14 -2.84217e-14 -60.4203 -5.80098 10.4164 2.1666 3.55271e-15 0 -25.6796 -1.14302 4.60813 9.4769 0.8376 0.2947 -36.1603 -7.10938 1.35292 4.772 -7.10543e-15 0 -58.0092 -6.97912 12.7135 2.8722 3.55271e-15 2.84217e-14 -34.0679 -2.44167 9.72168 8.6586 1.0176 -1.7016 -44.9026 -1.50514 -2.43069 4.5461 7.10543e-15 2.84217e-14 -60.723 -4.04831 6.90513 2.506 0 2.84217e-14 -13.0833 -0.150098 2.71721 7.6901 0.6618 -3.9096 -35.2133 -10.9784 -9.0143 3.2119 -1.42109e-14 0 -55.1774 -8.70999 16.5841 1.924 -7.10543e-15 -2.84217e-14 -25.5945 -1.90601 10.1678 -4.0677 26.6109 -1.1234 -10.5193 -19.769 -3.9832 -14.1772 -2.84217e-14 0 52.3138 36.1063 97.2026 -26.1234 -1.42109e-14 0 0.426755 0.113189 29.7102 -27.7188 1.42109e-14 1.42109e-14 -38.3206 -42.4874 -37.2675 -2.2979 -0.4684 1.8313 -50.0644 74.385 88.2388 -5.2953 0 0 27.2356 20.4136 -21.4288 -3.0181 5.68434e-14 -7.10543e-15 33.1305 -4.53438 -35.9601 -9.3793 0.2991 2.5924 19.7814 -2.43564 -4.5438 -4.3461 1.77636e-15 -2.84217e-14 48.9272 -3.40175 -8.07322 -2.1666 0 2.84217e-14 52.4099 -4.06672 -7.87373 -9.4769 0.8376 0.2947 43.0582 -7.40551 -19.0728 -4.772 0 2.84217e-14 108.256 -17.8599 -13.028 -2.8722 0 0 14.337 -0.317746 -4.67746 -8.6586 1.0176 -1.7016 51.5828 -2.05719 -9.80258 -4.5461 0 0 97.4434 -7.56428 -6.64243 -2.506 0 0 42.3448 -1.69977 -5.29326 -7.6901 0.6618 -3.9096 52.1932 -13.5754 -6.19123 -3.2119 1.42109e-14 -5.68434e-14 67.2431 -11.6274 -17.4114 -1.924 0 2.84217e-14 44.4591 -5.33191 -14.5627 8.7379 -0.0029 0.0005 26.1265 -25.5977 29.4022 -3.55271e-15 -46.6676 0 3.75273 33.208 8.74 0 -40.1476 0 -8.55782 -1.36132 13.7266 -1.77636e-15 -8.8846 14.2294 0.0001 1.2424e-17 -3.97569e-16 -8.7379 0.0029 -0.0005 -9.58638 -12.6044 -23.7194 0 -46.6676 -7.10543e-15 -5.39577 27.8042 9.98722 -3.55271e-15 -40.1476 8.88178e-16 13.3634 -12.8311 -15.7958 0 -8.8846 14.2294 9.93923e-17 3.10601e-18 -3.97569e-16 
-0.247964 91.6027 -0.611678 -2.9139 6.30491 -53.9073 0 7.2397 -4.44089e-16 1.24185 0.0538982 7.55271 3.55271e-15 16.546 4.44089e-16 2.00723 2.14515 14.7718 0 34.2149 1.77636e-15 -9.23652 42.1986 10.5867 0 6.2923 -1.42109e-14 7.20582 -19.7265 23.0444 4.0639 26.6115 -1.1234 -5.40108 -1.53947 10.6647 14.1772 0 0 -48.2896 -5.68543 -54.9111 26.1234 1.42109e-14 0 -0.85338 0.745841 -82.297 27.7188 1.42109e-14 1.42109e-14 41.1134 -36.3916 59.5329 2.2979 -0.4685 1.8313 32.94 60.5134 -45.4486 5.2953 0 0 3.95096 11.3734 9.93537 3.0181 0 0 37.2975 -0.458525 -5.86666 9.3793 0.2991 2.5924 -26.0979 -3.16132 2.61784 4.3461 0 2.84217e-14 -60.4203 -5.80098 10.4164 2.1666 0 2.84217e-14 -25.6796 -1.14302 4.60813 9.4769 0.8376 0.2947 -36.1603 -7.10938 1.35292 4.772 7.10543e-15 2.84217e-14 -58.0092 -6.97912 12.7135 2.8722 -1.06581e-14 0 -34.0679 -2.44167 9.72168 8.6586 1.0176 -1.7016 -44.9026 -1.50514 -2.43069 4.5461 7.10543e-15 0 -60.723 -4.04831 6.90513 2.506 -7.10543e-15 0 -13.0833 -0.150098 2.71721 7.6901 0.6618 -3.9096 -35.2133 -10.9784 -9.0143 3.2119 0 0 -55.1774 -8.70999 16.5841 1.924 7.10543e-15 0 -25.5945 -1.90601 10.1678 -4.0677 26.6109 -1.1234 -10.6011 -19.7785 -4.02633 -14.1772 0 0 52.2276 36.0945 97.4326 -26.1234 2.84217e-14 1.42109e-14 0.422567 0.110839 29.3892 -27.7188 0 1.42109e-14 -38.1016 -42.6411 -36.7826 -2.2979 -0.4684 1.8313 -50.0644 74.385 88.2388 -5.2953 0 0 27.2356 20.4136 -21.4288 -3.0181 2.84217e-14 7.10543e-15 33.1305 -4.53438 -35.9601 -9.3793 0.2991 2.5924 19.7814 -2.43564 -4.5438 -4.3461 -1.77636e-15 0 48.9272 -3.40175 -8.07322 -2.1666 7.10543e-15 0 52.4099 -4.06672 -7.87373 -9.4769 0.8376 0.2947 43.0582 -7.40551 -19.0728 -4.772 3.55271e-15 0 108.256 -17.8599 -13.028 -2.8722 -1.42109e-14 -2.84217e-14 14.337 -0.317746 -4.67746 -8.6586 1.0176 -1.7016 51.5828 -2.05719 -9.80258 -4.5461 0 0 97.4434 -7.56428 -6.64243 -2.506 -7.10543e-15 0 42.3448 -1.69977 -5.29326 -7.6901 0.6618 -3.9096 52.1932 -13.5754 -6.19123 -3.2119 7.10543e-15 2.84217e-14 67.2431 -11.6274 -17.4114 -1.924 0 0 44.4591 -5.33191 -14.5627 8.7379 -0.0029 0.0005 26.0066 -25.4827 29.3177 3.55271e-15 -46.6676 7.10543e-15 3.7069 32.9981 8.79406 0 -40.1476 0 -8.52201 -1.29988 13.7177 8.88178e-16 -8.8846 14.2294 0.0001 -1.2424e-17 3.97569e-16 -8.7379 0.0029 -0.0005 -9.59206 -12.4368 -23.7322 3.55271e-15 -46.6676 3.55271e-15 -5.34816 27.543 9.95082 0 -40.1476 3.55271e-15 13.3746 -12.6997 -15.8348 0 -8.8846 14.2294 1.98785e-16 -1.2424e-17 3.97569e-16 
-0.26658 91.6558 -0.580568 -2.91293 6.26162 -53.8583 -1.77636e-15 7.2397 -4.44089e-16 1.24829 0.0498572 7.5727 1.77636e-15 16.546 4.44089e-16 2.01948 2.1385 14.812 0 34.2149 1.77636e-15 -9.24211 42.2388 10.5861 0 6.2923 0 7.21566 -19.7244 23.0052 4.0639 26.6115 -1.1234 -5.30913 -1.55185 10.609 14.1772 0 0 -48.1728 -5.70366 -54.8162 26.1234 1.42109e-14 0 -0.853259 0.74485 -82.2326 27.7188 -1.42109e-14 -1.42109e-14 41.3226 -36.604 59.2793 2.2979 -0.4685 1.8313 32.94 60.5134 -45.4486 5.2953 0 7.10543e-15 3.95096 11.3734 9.93537 3.0181 -1.42109e-14 7.10543e-15 37.2975 -0.458525 -5.86666 9.3793 0.2991 2.5924 -26.0979 -3.16132 2.61784 4.3461 7.10543e-15 -2.84217e-14 -60.4203 -5.80098 10.4164 2.1666 3.55271e-15 0 -25.6796 -1.14302 4.60813 9.4769 0.8376 0.2947 -36.1603 -7.10938 1.35292 4.772 0 -2.84217e-14 -58.0092 -6.97912 12.7135 2.8722 7.10543e-15 0 -34.0679 -2.44167 9.72168 8.6586 1.0176 -1.7016 -44.9026 -1.50514 -2.43069 4.5461 0 -2.84217e-14 -60.723 -4.04831 6.90513 2.506 0 0 -13.0833 -0.150098 2.71721 7.6901 0.6618 -3.9096 -35.2133 -10.9784 -9.0143 3.2119 7.10543e-15 -2.84217e-14 -55.1774 -8.70999 16.5841 1.924 0 -2.84217e-14 -25.5945 -1.90601 10.1678 -4.0677 26.6109 -1.1234 -10.6793 -19.7875 -4.06877 -14.1772 0 0 52.1515 36.0835 97.6604 -26.1234 -1.42109e-14 1.42109e-14 0.418302 0.108453 29.0641 -27.7188 0 1.42109e-14 -37.873 -42.7912 -36.2711 -2.2979 -0.4684 1.8313 -50.0644 74.385 88.2388 -5.2953 -2.84217e-14 0 27.2356 20.4136 -21.4288 -3.0181 2.84217e-14 -7.10543e-15 33.1305 -4.53438 -35.9601 -9.3793 0.2991 2.5924 19.7814 -2.43564 -4.5438 -4.3461 1.77636e-15 -2.84217e-14 48.9272 -3.40175 -8.07322 -2.1666 -3.55271e-15 2.84217e-14 52.4099 -4.06672 -7.87373 -9.4769 0.8376 0.2947 43.0582 -7.40551 -19.0728 -4.772 -3.55271e-15 0 108.256 -17.8599 -13.028 -2.8722 0 0 14.337 -0.317746 -4.67746 -8.6586 1.0176 -1.7016 51.5828 -2.05719 -9.80258 -4.5461 7.10543e-15 0 97.4434 -7.56428 -6.64243 -2.506 0 0 42.3448 -1.69977 -5.29326 -7.6901 0.6618 -3.9096 52.1932 -13.5754 -6.19123 -3.2119 -7.10543e-15 0 67.2431 -11.6274 -17.4114 -1.924 1.42109e-14 0 44.4591 -5.33191 -14.5627 8.7379 -0.0029 0.0005 25.8832 -25.3651 29.2283 0 -46.6676 7.10543e-15 3.66233 32.7903 8.84854 -1.77636e-15 -40.1476 0 -8.4868 -1.24208 13.7084 0 -8.8846 14.2294 0.0001 -3.72721e-17 -3.97569e-16 -8.7379 0.0029 -0.0005 -9.59862 -12.2655 -23.7457 0 -46.6676 3.55271e-15 -5.30381 27.2829 9.91605 -7.10543e-15 -40.1476 -8.88178e-16 13.3835 -12.5645 -15.878 -3.55271e-15 -8.8846 14.2294 4.31046e-35 -6.21202e-18 3.97569e-16 
